#!OML:ASF I:\salsa\salsa 7_09\Patient 1\Session 1\dancermale.ASF
:FULLY-SPECIFIED
:DEGREES
2673
root 5.81347 17.4035 -0.136127 -2692.86 423.542 900.375
lowerback 174.974 -180.227 -179.207
upperback 1.86398 0.235382 0.369648
thorax 4.74967 0.136628 -0.0413795
lowerneck 1.16555 13.0816 10.8949
upperneck 29.0882 23.6522 -9.95843
head 11.9163 11.8374 -2.60828
rclavicle -2.56681e-014 2.98177e-015
rhumerus -147.218 214.076 -190.189
rradius 135.746
rwrist 0.354135
rhand -59.3921 21.0688
rfingers 7.12502
rthumb -31.573 -6.22189
lclavicle -2.56681e-014 2.98177e-015
lhumerus 294.86 -40.0458 -253.941
lradius 79.9559
lwrist 15.6902
lhand -4.80265 62.0368
lfingers 7.12502
lthumb 20.983 -2250.92
rfemur -27.9814 -3.56735 14.326
rtibia 54.7616
rfoot -6.84361 -11.3023
rtoes 27.3046
lfemur -7.10003 11.3455 -13.8041
ltibia 20.3704
lfoot -15.7378 26.0698
ltoes -4.26637
2674
root 5.83635 17.4275 -0.112231 -2692.71 424.444 899.965
lowerback 174.787 -180.445 -179.153
upperback 1.74902 0.522223 0.345556
thorax 4.73838 0.279981 -0.0692609
lowerneck 0.98431 13.2161 10.7706
upperneck 29.0196 23.8443 -10.0705
head 11.95 11.8863 -2.58354
rclavicle 5.80203e-014 -2.5842e-015
rhumerus -150.071 214.012 -191.317
rradius 135.796
rwrist -3.38607
rhand -59.0394 17.8812
rfingers 7.12502
rthumb -31.2369 -9.47486
lclavicle 5.80203e-014 -2.5842e-015
lhumerus 290.321 -39.6009 -251.882
lradius 80.3151
lwrist 17.0014
lhand -2.37997 62.6942
lfingers 7.12502
lthumb 23.3089 -2251.3
rfemur -26.1081 -2.51764 14.0819
rtibia 51.3708
rfoot -8.23323 -11.0413
rtoes 17.0013
lfemur -6.76816 11.7327 -13.9999
ltibia 19.0375
lfoot -15.1508 26.4382
ltoes -5.07949
2675
root 5.86613 17.4405 -0.0755064 -2692.49 425.134 899.586
lowerback 174.438 -180.619 -179.194
upperback 1.64796 0.754145 0.313916
thorax 4.83342 0.393603 -0.0542764
lowerneck 1.03237 13.3355 10.7922
upperneck 28.696 23.9656 -10.2443
head 11.8558 11.9265 -2.63809
rclavicle 1.00386e-014 -1.51076e-014
rhumerus -152.801 213.891 -192.732
rradius 136.169
rwrist -6.17544
rhand -58.5699 13.5591
rfingers 7.12502
rthumb -30.7893 -13.8823
lclavicle 1.00386e-014 -1.51076e-014
lhumerus 285.771 -39.2388 -249.812
lradius 80.9339
lwrist 19.0866
lhand -0.0954376 63.0301
lfingers 7.12502
lthumb 25.499 -2251.34
rfemur -24.0147 -1.11334 13.9027
rtibia 47.0386
rfoot -10.1085 -11.0929
rtoes 10.4821
lfemur -6.66601 11.9265 -14.1344
ltibia 17.9326
lfoot -14.5463 26.8373
ltoes -6.03807
2676
root 5.89567 17.4454 -0.0247139 -2691.76 425.502 899.715
lowerback 173.958 -180.688 -179.143
upperback 1.60269 0.833108 0.386688
thorax 5.05911 0.433244 0.00601664
lowerneck 1.33172 13.4354 11.1226
upperneck 28.1269 24.1388 -10.8257
head 11.7284 12.0037 -2.89115
rclavicle -1.78906e-015 -1.55052e-014
rhumerus -155.772 213.612 -193.772
rradius 136.052
rwrist -8.32007
rhand -58.4884 10.8882
rfingers 7.12502
rthumb -30.7116 -16.5678
lclavicle -1.78906e-015 -1.55052e-014
lhumerus 281.52 -38.7979 -247.856
lradius 81.7767
lwrist 22.2513
lhand 2.17111 63.7894
lfingers 7.12502
lthumb 27.6682 -2251.77
rfemur -21.7799 0.580358 14.0513
rtibia 42.1253
rfoot -12.1179 -11.6775
rtoes 4.26677
lfemur -6.92297 11.9395 -13.9603
ltibia 17.3429
lfoot -14.2083 27.1285
ltoes -6.38645
2677
root 5.92761 17.446 0.0393415 -2690.97 425.71 899.944
lowerback 173.397 -180.788 -179.115
upperback 1.66843 0.950738 0.513051
thorax 5.44584 0.491057 0.14257
lowerneck 1.38413 13.5183 11.251
upperneck 27.6629 24.2667 -11.3066
head 11.6425 12.0353 -3.06482
rclavicle 6.60959e-015 -1.2921e-014
rhumerus -159.037 213.058 -194.506
rradius 136.368
rwrist -10.8688
rhand -58.5736 10.5846
rfingers 7.12502
rthumb -30.7929 -16.8561
lclavicle 6.60959e-015 -1.2921e-014
lhumerus 277.696 -38.5104 -245.981
lradius 82.6858
lwrist 25.8901
lhand 4.67071 65.0325
lfingers 7.12502
lthumb 30.0558 -2252.61
rfemur -19.662 2.21914 14.349
rtibia 37.5566
rfoot -14.0244 -12.6901
rtoes -0.727118
lfemur -7.45637 12.0154 -13.6836
ltibia 17.3117
lfoot -13.9053 27.2415
ltoes -7.26825
2678
root 5.9641 17.4405 0.116746 -2690.35 425.849 899.965
lowerback 173.191 -180.982 -179.259
upperback 1.45647 1.21548 0.655305
thorax 5.33636 0.614595 0.402163
lowerneck 1.47923 13.4871 11.2812
upperneck 27.5467 24.2546 -11.4531
head 11.603 12.0335 -3.13148
rclavicle 9.88954e-015 5.96354e-015
rhumerus -162.713 212.424 -194.862
rradius 136.778
rwrist -12.5647
rhand -57.9135 9.83109
rfingers 7.12502
rthumb -30.1633 -17.7265
lclavicle 9.88954e-015 5.96354e-015
lhumerus 273.477 -38.214 -243.635
lradius 83.6548
lwrist 29.4838
lhand 7.80044 66.4018
lfingers 7.12502
lthumb 33.0373 -2253.39
rfemur -17.9864 3.65229 14.6356
rtibia 33.8591
rfoot -15.8178 -13.8412
rtoes -7.03504
lfemur -8.2961 12.0381 -13.4289
ltibia 17.8092
lfoot -13.4963 27.229
ltoes -8.9857
2679
root 6.0008 17.4304 0.206134 -2689.57 425.861 900.253
lowerback 173.317 -181.141 -179.51
upperback 1.08168 1.44142 0.972761
thorax 4.85867 0.716076 0.889003
lowerneck 1.78651 13.4677 11.2356
upperneck 27.5434 24.3282 -11.5363
head 11.5619 12.0906 -3.1697
rclavicle -4.10987e-014 -1.74931e-014
rhumerus -166.369 211.618 -195.094
rradius 137.065
rwrist -12.2168
rhand -56.7727 7.03283
rfingers 7.12502
rthumb -29.0744 -20.7181
lclavicle -4.10987e-014 -1.74931e-014
lhumerus 269.281 -37.5686 -241.124
lradius 84.5995
lwrist 33.2503
lhand 10.8363 67.9048
lfingers 7.12502
lthumb 35.9191 -2254.24
rfemur -16.6813 4.91346 15.1334
rtibia 30.7186
rfoot -17.2917 -14.8883
rtoes -9.41376
lfemur -9.42102 11.7215 -12.9096
ltibia 18.9805
lfoot -13.2645 27.1151
ltoes -11.0444
2680
root 6.03288 17.4191 0.304653 -2688.44 425.798 901.148
lowerback 173.412 -181.175 -179.706
upperback 0.974303 1.48759 1.51253
thorax 4.67346 0.730201 1.55917
lowerneck 1.97962 13.633 10.9231
upperneck 27.4464 24.6739 -11.7147
head 11.5244 12.2282 -3.15203
rclavicle 3.05134e-014 -1.47101e-014
rhumerus -169.727 210.105 -195.479
rradius 137.573
rwrist -12.2353
rhand -57.1747 6.40935
rfingers 7.12502
rthumb -29.4583 -21.2747
lclavicle 3.05134e-014 -1.47101e-014
lhumerus 266.075 -36.5842 -239.196
lradius 85.466
lwrist 37.1862
lhand 13.259 69.4867
lfingers 7.12502
lthumb 38.2104 -2255.23
rfemur -15.4822 5.7654 16.0043
rtibia 27.7711
rfoot -18.0281 -15.7591
rtoes -9.04577
lfemur -10.7265 11.3726 -11.9613
ltibia 20.9196
lfoot -13.1662 26.7747
ltoes -13.0653
2681
root 6.05654 17.4093 0.414406 -2687.15 425.66 902.314
lowerback 173.558 -181.201 -179.688
upperback 1.05289 1.50907 1.97409
thorax 4.66077 0.738492 2.02863
lowerneck 1.9227 13.8443 10.7238
upperneck 27.34 25.0456 -11.9321
head 11.5556 12.359 -3.13389
rclavicle 1.85864e-014 7.95139e-015
rhumerus -173.083 208.518 -196.301
rradius 138.222
rwrist -12.0009
rhand -57.2102 5.65571
rfingers 7.12502
rthumb -29.4922 -22.0223
lclavicle 1.85864e-014 7.95139e-015
lhumerus 263.53 -35.8136 -237.967
lradius 86.5075
lwrist 40.8857
lhand 15.6497 71.6193
lfingers 7.12502
lthumb 40.4628 -2256.7
rfemur -14.3955 6.1827 17.0693
rtibia 25.1194
rfoot -18.2236 -16.4323
rtoes -8.67962
lfemur -12.3652 11.337 -10.8048
ltibia 23.5927
lfoot -12.9863 26.1095
ltoes -14.6947
2682
root 6.06989 17.4038 0.535695 -2686.07 425.387 903.253
lowerback 173.881 -181.367 -179.493
upperback 1.17393 1.71355 2.22367
thorax 4.59615 0.844521 2.19166
lowerneck 1.65251 13.9697 10.6189
upperneck 27.2288 25.2116 -12.0428
head 11.5896 12.395 -3.10523
rclavicle 4.27387e-015 2.54444e-014
rhumerus -177.007 206.722 -197.326
rradius 138.939
rwrist -11.2628
rhand -57.0343 4.84959
rfingers 7.12502
rthumb -29.3243 -22.8579
lclavicle 4.27387e-015 2.54444e-014
lhumerus 261.233 -35.7368 -237.008
lradius 87.5485
lwrist 44.4521
lhand 17.528 72.4727
lfingers 7.12502
lthumb 42.2257 -2256.99
rfemur -13.554 6.28515 18.0547
rtibia 22.928
rfoot -18.2971 -16.9083
rtoes -7.55752
lfemur -14.4488 11.5001 -9.73222
ltibia 26.9548
lfoot -13.0605 25.045
ltoes -14.6221
2683
root 6.0768 17.4016 0.66397 -2685.29 425.02 903.89
lowerback 174.296 -181.607 -179.285
upperback 1.29678 2.0227 2.3721
thorax 4.48083 1.00411 2.24771
lowerneck 1.42786 14.0196 10.5142
upperneck 27.1137 25.2415 -12.0669
head 11.5789 12.3809 -3.07535
rclavicle 8.41853e-014 -6.75868e-014
rhumerus -181.243 204.799 -198.664
rradius 139.656
rwrist -10.201
rhand -56.7122 4.01733
rfingers 7.12502
rthumb -29.0166 -23.7436
lclavicle 8.41853e-014 -6.75868e-014
lhumerus 259.281 -35.9891 -236.199
lradius 88.3108
lwrist 48.0852
lhand 19.6952 75.8384
lfingers 7.12502
lthumb 44.251 -2259.63
rfemur -12.9771 5.97406 18.8956
rtibia 21.2223
rfoot -18.3189 -17.0675
rtoes -6.5352
lfemur -16.841 11.8156 -8.82231
ltibia 30.7255
lfoot -12.662 23.8031
ltoes -14.3462
2684
root 6.07932 17.4006 0.797187 -2684.68 424.586 904.396
lowerback 174.85 -181.774 -179.141
upperback 1.33642 2.24798 2.4702
thorax 4.20338 1.12189 2.26895
lowerneck 1.56416 14.0453 10.7205
upperneck 26.954 25.2955 -12.2148
head 11.5505 12.4216 -3.15799
rclavicle -2.28602e-014 -8.74653e-015
rhumerus -185.454 202.639 -200.7
rradius 140.333
rwrist -9.18561
rhand -56.078 3.65511
rfingers 7.12502
rthumb -28.4107 -24.2085
lclavicle -2.28602e-014 -8.74653e-015
lhumerus 257.793 -36.08 -236.083
lradius 88.9729
lwrist 51.0764
lhand 21.4596 77.5343
lfingers 7.12502
lthumb 45.8923 -2260.67
rfemur -12.5838 5.32556 19.6808
rtibia 19.8909
rfoot -18.1703 -16.9068
rtoes -5.56945
lfemur -19.4342 12.2603 -8.006
ltibia 34.5848
lfoot -10.8421 22.5628
ltoes -15.9523
2685
root 6.07664 17.4017 0.932735 -2684.32 424.097 904.695
lowerback 175.53 -181.957 -178.988
upperback 1.38861 2.49989 2.50321
thorax 3.87029 1.25359 2.21095
lowerneck 1.62291 14.0512 10.929
upperneck 26.7731 25.2876 -12.3301
head 11.5138 12.4306 -3.23334
rclavicle 3.26007e-014 6.04305e-014
rhumerus -189.873 200.572 -203.284
rradius 140.857
rwrist -8.53278
rhand -55.4522 4.90615
rfingers 7.12502
rthumb -27.8126 -23.0556
lclavicle 3.26007e-014 6.04305e-014
lhumerus 256.848 -36.3776 -236.614
lradius 89.5295
lwrist 52.9452
lhand 22.0274 76.5579
lfingers 7.12502
lthumb 46.4188 -2259.48
rfemur -12.3795 4.49264 20.348
rtibia 18.9357
rfoot -17.8165 -16.5669
rtoes -4.63962
lfemur -22.1786 12.5101 -7.28846
ltibia 38.4966
lfoot -8.62328 21.0411
ltoes -16.028
2686
root 6.07266 17.4046 1.06941 -2684.18 423.566 904.857
lowerback 176.204 -182.231 -178.716
upperback 1.58064 2.86806 2.4445
thorax 3.69439 1.44556 2.00078
lowerneck 1.45653 14.0319 10.9901
upperneck 26.5366 25.1249 -12.2674
head 11.4239 12.3511 -3.23641
rclavicle 3.53837e-014 5.88403e-014
rhumerus -194.542 198.857 -206.385
rradius 141.114
rwrist -7.9471
rhand -55.2504 6.39357
rfingers 7.12502
rthumb -27.6196 -21.5993
lclavicle 3.53837e-014 5.88403e-014
lhumerus 256.766 -37.1796 -237.811
lradius 87.9827
lwrist 50.4016
lhand 21.8725 62.4486
lfingers 7.12502
lthumb 46.2753 -2434.57
rfemur -12.3354 3.53466 20.9441
rtibia 18.4463
rfoot -17.5006 -16.1898
rtoes -4.20461
lfemur -24.9054 12.4908 -6.59171
ltibia 42.3541
lfoot -6.45936 19.3205
ltoes -14.6681
2687
root 6.06883 17.4048 1.20768 -2684.03 422.974 905.146
lowerback 176.803 -182.532 -178.316
upperback 1.89394 3.26635 2.35294
thorax 3.69948 1.65653 1.69061
lowerneck 1.3822 14.0017 11.1024
upperneck 26.1668 24.8845 -12.1597
head 11.2535 12.248 -3.25601
rclavicle -4.17448e-014 -1.90833e-014
rhumerus -198.848 197.42 -210.031
rradius 140.924
rwrist -7.24943
rhand -55.2541 5.9539
rfingers 7.12502
rthumb -27.6232 -22.0384
lclavicle -4.17448e-014 -1.90833e-014
lhumerus 258.003 -38.4639 -240.331
lradius 87.6064
lwrist 46.9501
lhand 22.3141 62.2295
lfingers 7.12502
lthumb 46.6844 -2434.97
rfemur -12.396 2.60908 21.643
rtibia 18.3567
rfoot -17.4191 -15.8897
rtoes -3.58454
lfemur -27.5106 12.3796 -5.75328
ltibia 45.9316
lfoot -3.77945 17.5513
ltoes -12.418
